<svg width="24" height="24" viewBox="0 0 24 24" fill="none" xmlns="http://www.w3.org/2000/svg">
<path d="M1.81323 13.4999H18.5682L11.2482 20.8199C10.6632 21.4049 10.6632 22.3649 11.2482 22.9499C11.8332 23.5349 12.7782 23.5349 13.3632 22.9499L23.2482 13.0649C23.8332 12.4799 23.8332 11.5349 23.2482 10.9499L13.3782 1.04993C13.098 0.769055 12.7175 0.611206 12.3207 0.611206C11.924 0.611206 11.5435 0.769055 11.2632 1.04993C10.6782 1.63493 10.6782 2.57993 11.2632 3.16493L18.5682 10.4999H1.81323C0.988232 10.4999 0.313232 11.1749 0.313232 11.9999C0.313232 12.8249 0.988232 13.4999 1.81323 13.4999Z" fill="white" fill-opacity="0.2"/>
</svg>
