<svg width="68" height="20" viewBox="0 0 68 20" fill="none" xmlns="http://www.w3.org/2000/svg">
<path d="M6.78 19.3C5.85 19.3 5.095 19.12 4.515 18.76C3.945 18.4 3.525 17.94 3.255 17.38C2.995 16.82 2.865 16.23 2.865 15.61V6.685H0.51L0.795 4.18H2.865V0.684999L6 0.355V4.18H9.63V6.685H6V14.02C6 14.88 6.05 15.505 6.15 15.895C6.25 16.275 6.495 16.515 6.885 16.615C7.275 16.715 7.895 16.765 8.745 16.765H9.585L9.315 19.3H6.78ZM18.1617 19.3C16.3917 19.3 14.9117 18.945 13.7217 18.235C12.5317 17.515 11.6317 16.565 11.0217 15.385C10.4217 14.195 10.1217 12.895 10.1217 11.485C10.1217 10.115 10.4017 8.855 10.9617 7.705C11.5317 6.555 12.3567 5.635 13.4367 4.945C14.5267 4.245 15.8417 3.895 17.3817 3.895C18.6917 3.895 19.8267 4.16 20.7867 4.69C21.7467 5.22 22.4817 5.96 22.9917 6.91C23.5117 7.86 23.7717 8.97 23.7717 10.24C23.7717 10.5 23.7567 10.77 23.7267 11.05C23.7067 11.33 23.6667 11.625 23.6067 11.935H13.3617C13.4917 13.105 13.8017 14.035 14.2917 14.725C14.7817 15.405 15.3917 15.89 16.1217 16.18C16.8517 16.47 17.6417 16.615 18.4917 16.615C19.2517 16.615 20.0017 16.53 20.7417 16.36C21.4817 16.18 22.1767 15.925 22.8267 15.595L23.1117 18.16C22.5417 18.43 21.8417 18.69 21.0117 18.94C20.1817 19.18 19.2317 19.3 18.1617 19.3ZM13.5417 9.79H20.5617C20.5617 9.2 20.4517 8.665 20.2317 8.185C20.0117 7.695 19.6617 7.305 19.1817 7.015C18.7117 6.725 18.1017 6.58 17.3517 6.58C16.2517 6.58 15.3967 6.87 14.7867 7.45C14.1867 8.03 13.7717 8.81 13.5417 9.79ZM28.8769 19.3C28.0169 19.3 27.2519 19.12 26.5819 18.76C25.9119 18.39 25.3819 17.88 24.9919 17.23C24.6119 16.58 24.4219 15.815 24.4219 14.935C24.4219 14.095 24.6119 13.38 24.9919 12.79C25.3719 12.19 25.8769 11.69 26.5069 11.29C27.1369 10.89 27.8269 10.575 28.5769 10.345C29.3369 10.105 30.1069 9.93 30.8869 9.82C31.6669 9.71 32.3919 9.65 33.0619 9.64C33.0519 8.47 32.8019 7.68 32.3119 7.27C31.8219 6.85 31.0769 6.64 30.0769 6.64C29.4769 6.64 28.8619 6.73 28.2319 6.91C27.6019 7.08 26.8919 7.405 26.1019 7.885L25.7419 5.335C26.4619 4.895 27.2669 4.545 28.1569 4.285C29.0469 4.025 29.9669 3.895 30.9169 3.895C32.1069 3.895 33.0919 4.105 33.8719 4.525C34.6519 4.945 35.2369 5.64 35.6269 6.61C36.0169 7.58 36.2119 8.88 36.2119 10.51V13.96C36.2119 14.68 36.2419 15.245 36.3019 15.655C36.3719 16.055 36.5169 16.34 36.7369 16.51C36.9569 16.68 37.2919 16.765 37.7419 16.765H38.1019L37.7119 19.3H37.0219C36.2819 19.3 35.6819 19.22 35.2219 19.06C34.7719 18.9 34.4069 18.675 34.1269 18.385C33.8469 18.085 33.6119 17.73 33.4219 17.32C32.8919 17.92 32.2319 18.4 31.4419 18.76C30.6619 19.12 29.8069 19.3 28.8769 19.3ZM29.8369 16.84C30.3969 16.84 30.9719 16.7 31.5619 16.42C32.1619 16.14 32.6669 15.75 33.0769 15.25V11.77C31.9569 11.82 30.9919 11.955 30.1819 12.175C29.3819 12.385 28.7619 12.705 28.3219 13.135C27.8919 13.565 27.6769 14.115 27.6769 14.785C27.6769 15.505 27.8669 16.03 28.2469 16.36C28.6269 16.68 29.1569 16.84 29.8369 16.84ZM39.251 19V4.18H41.816L42.236 6.73L41.411 6.175C42.181 5.415 42.986 4.845 43.826 4.465C44.666 4.085 45.586 3.895 46.586 3.895C47.346 3.895 48.046 4.015 48.686 4.255C49.326 4.485 49.891 4.86 50.381 5.38C50.881 5.9 51.281 6.59 51.581 7.45L50.771 7.165C51.231 6.145 51.916 5.345 52.826 4.765C53.746 4.185 54.896 3.895 56.276 3.895C57.566 3.895 58.636 4.15 59.486 4.66C60.346 5.16 60.986 5.9 61.406 6.88C61.826 7.85 62.036 9.045 62.036 10.465V19H58.901V10.6C58.901 9.21 58.651 8.195 58.151 7.555C57.661 6.905 56.851 6.58 55.721 6.58C55.011 6.58 54.426 6.695 53.966 6.925C53.506 7.145 53.146 7.45 52.886 7.84C52.636 8.22 52.461 8.645 52.361 9.115C52.261 9.585 52.211 10.065 52.211 10.555V19H49.076V10.915C49.076 9.825 48.951 8.965 48.701 8.335C48.451 7.705 48.086 7.255 47.606 6.985C47.126 6.715 46.546 6.58 45.866 6.58C44.926 6.58 44.111 6.79 43.421 7.21C42.741 7.63 42.236 8.26 41.906 9.1L42.386 7.405V19H39.251Z" fill="white"/>
<path d="M64.2124 19V15.445H67.7224V19H64.2124Z" fill="#0BCBFF"/>
</svg>
